<?xml version="1.0" encoding="utf-8"?>
<!-- Generator: Adobe Illustrator 22.1.0, SVG Export Plug-In . SVG Version: 6.00 Build 0)  -->
<svg version="1.1" id="katman_1" xmlns="http://www.w3.org/2000/svg" xmlns:xlink="http://www.w3.org/1999/xlink" x="0px" y="0px"
	 viewBox="0 0 446 446" style="enable-background:new 0 0 446 446;" xml:space="preserve">
<style type="text/css">
	.st0{fill:#CDBA85;}
	.st1{fill:#FEFEFE;}
</style>
<g>
	<circle class="st0" cx="223" cy="223" r="223"/>
	<path class="st1" d="M184.9,337.3c-0.7-0.6-1.7-1.3-2.5-2.1c-32.3-32.3-64.6-64.6-96.9-96.8c-2.1-2.1-2.3-3.3,0-5.5
		c15.3-15.1,30.5-30.3,45.6-45.6c2.7-2.7,4.1-1.9,6.4,0.3c14.5,14.7,29.3,29.2,43.7,43.9c3,3.1,4.6,3.3,7.8,0.1
		c39.6-39.8,79.4-79.4,119.1-119.2c3-3,4.6-3.4,7.8-0.1c14.5,14.9,29.3,29.6,44.2,44.2c2.6,2.5,2.9,3.9,0.1,6.7
		c-57.4,57.2-114.6,114.5-171.9,171.7C187.4,335.8,186.7,337.1,184.9,337.3z"/>
</g>
</svg>
